<svg width="98" height="98" viewBox="0 0 98 98" fill="none" xmlns="http://www.w3.org/2000/svg">
<path d="M43.5352 77.5048C30.0803 77.5048 19.1341 66.5644 19.1341 53.1168C19.1341 39.6619 30.0803 28.7153 43.5352 28.7153C56.9901 28.7153 67.9362 39.6617 67.9362 53.1168C67.9362 66.5644 56.9902 77.5048 43.5352 77.5048Z" fill="#30C5EF"/>
<path d="M46.7303 16.758V29.0989C46.7303 30.8635 45.2997 32.2941 43.5352 32.2941C41.7706 32.2941 40.34 30.8635 40.34 29.0989V16.758C40.34 14.9934 41.7706 13.5629 43.5352 13.5629C45.2997 13.5629 46.7303 14.9934 46.7303 16.758Z" fill="#30C5EF"/>
<path d="M46.7303 77.1212V89.4621C46.7303 91.2267 45.2997 92.6572 43.5352 92.6572C41.7706 92.6572 40.34 91.2267 40.34 89.4621V77.1212C40.34 75.3566 41.7706 73.926 43.5352 73.926C45.2997 73.926 46.7303 75.3566 46.7303 77.1212Z" fill="#30C5EF"/>
<path d="M79.8872 56.305H67.5463C65.7817 56.305 64.3512 54.8744 64.3512 53.1098C64.3512 51.3452 65.7817 49.9147 67.5463 49.9147H79.8872C81.6518 49.9147 83.0824 51.3452 83.0824 53.1098C83.0824 54.8746 81.6518 56.305 79.8872 56.305Z" fill="#30C5EF"/>
<path d="M19.524 56.305H7.18309C5.41852 56.305 3.98795 54.8744 3.98795 53.1098C3.98795 51.3452 5.41852 49.9147 7.18309 49.9147H19.524C21.2886 49.9147 22.7192 51.3452 22.7192 53.1098C22.7192 54.8746 21.2886 56.305 19.524 56.305Z" fill="#30C5EF"/>
<path d="M76.3409 14.9779L85.9757 5.34326L87.6411 11.7136L94.0117 13.3793L84.3768 23.0141L76.662 22.6927L76.3409 14.9779Z" fill="#30C5EF"/>
<path d="M7.1829 57.2058H8.44867C10.3285 73.4183 23.2222 86.3102 39.4393 88.192V89.4623C39.4393 91.72 41.2766 93.5573 43.5352 93.5573C45.7928 93.5573 47.6301 91.72 47.6301 89.4623V88.1954C63.8483 86.3148 76.7426 73.4192 78.6224 57.206H79.8866C82.1452 57.206 83.9825 55.3687 83.9825 53.1101C83.9825 50.8524 82.1452 49.0151 79.8866 49.0151H78.6205C77.7795 41.7777 74.7447 35.2048 70.1996 29.9742L76.7859 23.5989L84.3388 23.9139C84.5604 23.9287 84.8226 23.8416 85.0131 23.6511L94.6485 14.0157C94.877 13.788 94.9651 13.4549 94.8806 13.1437C94.7962 12.8325 94.5518 12.5897 94.2398 12.508L88.3786 10.9766L86.8471 5.11629C86.7654 4.80411 86.5227 4.55987 86.2115 4.47546C85.9002 4.38933 85.567 4.47891 85.3394 4.70764L75.704 14.3421C75.5256 14.5197 75.4307 14.7641 75.4412 15.0164L75.7371 22.1088L68.984 28.6457C63.4447 22.8868 55.9796 18.9963 47.6307 18.0276V16.759C47.6307 14.5004 45.7934 12.6631 43.5357 12.6631C41.2771 12.6631 39.4398 14.5004 39.4398 16.759V18.0287C23.2248 19.9101 10.3292 32.8024 8.44465 49.0155H7.18328C4.92526 49.0155 3.08833 50.8528 3.08833 53.1105C3.08795 55.3683 4.92488 57.2058 7.1829 57.2058ZM85.5019 7.09046L86.7696 11.9415C86.8523 12.2561 87.0984 12.5023 87.4131 12.585L92.2651 13.8526L84.0197 22.098L77.5272 21.8272L77.2563 15.3347L85.5019 7.09046ZM10.2588 57.2058H18.5951C20.3413 67.8715 28.7693 76.2959 39.4394 78.0434V86.3824C24.215 84.5196 12.12 72.4255 10.2588 57.2058ZM39.5409 76.2386C29.7838 74.5581 22.0821 66.8586 20.4022 57.1055C22.2387 56.7016 23.6193 55.0661 23.6193 53.1097C23.6193 51.1518 22.2357 49.5143 20.3959 49.1129C22.0802 39.36 29.7857 31.6609 39.5407 29.9805C39.9461 31.8148 41.5803 33.1937 43.5353 33.1937C45.489 33.1937 47.1227 31.8155 47.5287 29.9819C52.578 30.8518 57.0752 33.3298 60.4777 36.8788L54.1959 42.9594C51.5088 40.1406 47.7285 38.3727 43.5355 38.3727C35.4052 38.3727 28.7911 44.9866 28.7911 53.1168C28.7911 61.2391 35.4054 67.8476 43.5355 67.8476C51.6657 67.8476 58.2796 61.2391 58.2796 53.1168C58.2796 49.8276 57.184 46.7971 55.3564 44.3419L61.6763 38.2246C64.2061 41.3013 65.9609 45.0281 66.6664 49.1156C64.8312 49.5202 63.4514 51.155 63.4514 53.1099C63.4514 55.0666 64.8327 56.7026 66.6695 57.1061C64.9895 66.8595 57.2877 74.5617 47.5298 76.2417C47.1256 74.4061 45.4906 73.0259 43.5353 73.0259C41.5805 73.0259 39.9463 74.4046 39.5409 76.2386ZM44.0866 47.7505C43.575 47.7126 43.1573 48.0837 43.1196 48.5787C43.1123 48.67 42.6447 54.5322 42.6543 54.6239C42.6622 54.7221 42.5264 55.1706 42.8989 55.5432C43.0819 55.7262 43.3386 55.8248 43.6048 55.8043L49.86 55.3191C50.3557 55.2804 50.7269 54.8478 50.6882 54.3521C50.6495 53.8571 50.2319 53.4852 49.7212 53.5239L45.535 53.8491L54.0543 45.6027C55.5742 47.7241 56.4792 50.3142 56.4792 53.117C56.4792 60.2468 50.6725 66.0474 43.5355 66.0474C36.3978 66.0474 30.5915 60.2468 30.5915 53.117C30.5915 45.9802 36.3978 40.1733 43.5355 40.1733C47.2213 40.1733 50.5439 41.7298 52.9033 44.2106L44.6466 52.2028L44.9148 48.7177C44.9525 48.2217 44.5816 47.7884 44.0866 47.7505ZM45.8299 89.4623C45.8299 90.7273 44.8005 91.7569 43.5353 91.7569C42.2694 91.7569 41.24 90.7275 41.24 89.4623V77.121C41.24 75.856 42.2694 74.8264 43.5353 74.8264C44.8003 74.8264 45.8299 75.8558 45.8299 77.121V89.4623ZM47.6303 86.3849V78.0499C58.301 76.3033 66.728 67.8725 68.4742 57.2056H76.8132C74.952 72.4258 62.8559 84.5231 47.6303 86.3849ZM82.1824 53.1099C82.1824 54.3758 81.153 55.4052 79.887 55.4052H67.5465C66.2815 55.4052 65.2519 54.3758 65.2519 53.1099C65.2519 51.8449 66.2813 50.8153 67.5465 50.8153H79.887C81.1528 50.8153 82.1824 51.8447 82.1824 53.1099ZM76.8104 49.0147H68.4748C67.7312 44.4824 65.7938 40.3515 62.9767 36.9657L68.907 31.2254C73.1415 36.1272 75.9825 42.2621 76.8104 49.0147ZM67.692 29.8956L61.7706 35.6272C58.0621 31.7618 53.1466 29.0781 47.6305 28.1746V19.8372C55.4722 20.7969 62.4804 24.4753 67.692 29.8956ZM41.24 16.7584C41.24 15.4924 42.2694 14.463 43.5353 14.463C44.8003 14.463 45.8299 15.4924 45.8299 16.7584V29.0989C45.8299 30.3639 44.8005 31.3935 43.5353 31.3935C42.2694 31.3935 41.24 30.3641 41.24 29.0989V16.7584ZM39.4394 19.8387V28.1712C28.7712 29.9183 20.3438 38.3477 18.5938 49.0147H10.2548C12.1206 33.7947 24.2175 21.7015 39.4394 19.8387ZM7.1829 50.8153H19.5238C20.7894 50.8153 21.8188 51.8447 21.8188 53.1099C21.8188 54.3758 20.7894 55.4052 19.5238 55.4052H7.1829C5.91789 55.4052 4.88832 54.3758 4.88832 53.1099C4.88832 51.8447 5.91789 50.8153 7.1829 50.8153Z" fill="#1767A0"/>
</svg>
