<svg width="89" height="89" viewBox="0 0 89 89" fill="none" xmlns="http://www.w3.org/2000/svg">
<path d="M57 45.178V36H78V45.178C78 46.1843 76.7553 47 75.2198 47H59.7804C58.2447 47 57 46.1842 57 45.178Z" fill="#30C5EF"/>
<path d="M44.8468 35L34 34.9997V14L44.8468 14.0003C46.036 14.0003 47 15.2452 47 16.7807V32.2198C47 33.7553 46.036 35 44.8468 35Z" fill="#30C5EF"/>
<path d="M33.7188 44.8442V59.0674H12.3919V44.8442C12.3919 43.2848 13.6559 42.0208 15.2154 42.0208H30.8952C32.4546 42.0206 33.7188 43.2848 33.7188 44.8442Z" fill="#30C5EF"/>
<path d="M44.3189 79L56 78.9996V57L44.3189 57.0004C43.0382 57.0004 42 58.3045 42 59.9131V76.0875C41.9999 77.6961 43.0382 79 44.3189 79Z" fill="#30C5EF"/>
<path d="M44.0206 26.1316V18.1337C44.0206 17.6654 43.6409 17.2856 43.1725 17.2856L40.0396 17.2853C39.5713 17.2853 39.1915 17.6649 39.1915 18.1334C39.1915 18.6017 39.5711 18.9815 40.0396 18.9815L42.3244 18.9818V26.1317C42.3244 26.6 42.704 26.9798 43.1725 26.9798C43.6409 26.9798 44.0206 26.5999 44.0206 26.1316Z" fill="#1767A0"/>
<path d="M1.25052 66.4677C1.25052 68.0857 2.38179 69.4376 3.89288 69.7936C3.55618 70.3236 3.35419 70.9474 3.35419 71.6205C3.35419 73.5086 4.89048 75.0449 6.7786 75.0449H8.14871C7.84608 75.5555 7.6606 76.1435 7.6606 76.7787V77.2574C7.6606 79.1455 9.1969 80.6818 11.085 80.6818L29.9513 80.6815C32.0994 80.6815 34.1903 79.922 35.8374 78.5436C37.1808 77.4198 38.8847 76.8008 40.6358 76.8008H40.8338C41.2011 78.4403 42.6628 79.6715 44.4113 79.6715L55.5772 79.6712C56.2059 80.4197 57.1364 80.9062 58.1881 80.9062H58.6668C59.3018 80.9062 59.8899 80.7209 60.4001 80.4185V81.7888C60.4004 83.6765 61.937 85.2128 63.8248 85.2128C64.4979 85.2128 65.1219 85.0108 65.6519 84.6741C66.0079 86.1852 67.3596 87.3165 68.9776 87.3165C70.8657 87.3165 72.402 85.7802 72.402 83.8917V82.6249C72.9113 82.9256 73.4973 83.11 74.1304 83.11C76.0185 83.11 77.5548 81.5737 77.5548 79.6856V67.7793L79.5792 71.5051C80.7421 73.6473 83.562 74.1977 85.4454 72.6694C86.9128 71.4794 87.3137 69.4164 86.3961 67.7608C81.2148 58.2926 79.3228 54.5768 75.7672 51.5939V47.7629C77.4849 47.4572 78.7958 45.961 78.7958 44.1567V36.9498C80.2561 36.5585 81.3399 35.2365 81.3399 33.6545V33.1758C81.3399 32.5406 81.1544 31.9526 80.8518 31.4421H82.2223C84.1104 31.4421 85.6467 29.9058 85.6467 28.0176C85.6467 27.3446 85.4447 26.7205 85.1078 26.1905C86.6186 25.8345 87.7497 24.4827 87.7497 22.8648C87.7497 20.9767 86.2134 19.4404 84.3252 19.4404H83.0579C83.3586 18.9311 83.543 18.3451 83.543 17.7121C83.543 15.8234 82.0067 14.2873 80.1186 14.2873H68.2117L71.9381 12.2629C74.0772 11.1012 74.6329 8.28502 73.1029 6.39672C71.912 4.92926 69.8495 4.52876 68.194 5.44606C58.6463 10.6701 54.9923 12.5395 52.0271 16.0746H48.1961C47.8903 14.3568 46.3939 13.0456 44.5895 13.0456L35.5764 13.0455V11.5191C35.5764 9.63045 34.0401 8.09433 32.1519 8.09433H31.6732C31.0382 8.09433 30.4502 8.2798 29.9398 8.58226V7.21232C29.9398 5.3242 28.4035 3.78791 26.515 3.78791C25.842 3.78791 25.2179 3.9899 24.6879 4.32678C24.3319 2.81604 22.9801 1.68494 21.3623 1.68494C19.4741 1.68494 17.9378 3.22123 17.9378 5.10935V6.37621C17.4285 6.07549 16.8426 5.89106 16.2095 5.89106C14.3214 5.89106 12.7851 7.42735 12.7851 9.31547V21.2223L10.7607 17.4956C9.59792 15.3572 6.78121 14.8018 4.89448 16.3317C3.4265 17.5222 3.02652 19.5856 3.94381 21.2403C8.72078 29.8924 10.721 34.1765 14.5727 37.4075V41.2385C12.8549 41.5442 11.5441 43.0407 11.5441 44.8451V57.891H8.8814C6.99328 57.891 5.45699 59.4273 5.45699 61.3155C5.45699 61.9487 5.64159 62.5349 5.94231 63.0442H4.67476C2.78664 63.0433 1.25052 64.5794 1.25052 66.4677ZM44.411 77.9753C43.3216 77.9753 42.4354 77.0891 42.4354 75.9998V60.3199C42.4354 59.2306 43.3216 58.3444 44.411 58.3444L54.7753 58.344C54.7727 58.4348 54.7633 58.525 54.7633 58.6159C54.7844 74.1122 54.6766 77.0408 54.8132 77.975L44.411 77.9753ZM84.914 68.5853C85.4303 69.517 85.2046 70.6804 84.3769 71.3514C83.3129 72.2131 81.7246 71.9023 81.0696 70.695L77.4517 64.0367C77.2666 63.696 76.8744 63.5241 76.4978 63.6197C76.1218 63.7153 75.8584 64.0536 75.8584 64.4416V79.6851C75.8584 80.6384 75.0833 81.4135 74.13 81.4135C73.1768 81.4135 72.4017 80.6384 72.4017 79.6851V68.99C72.4017 68.5217 72.022 68.1419 71.5536 68.1419C71.0853 68.1419 70.7055 68.5215 70.7055 68.99V83.8914C70.7055 84.8447 69.9304 85.6201 68.9771 85.6201C68.0238 85.6201 67.2487 84.8445 67.2487 83.8914C67.2487 80.0765 67.2487 72.8051 67.2487 68.99C67.2487 68.5217 66.8691 68.1419 66.4006 68.1419C65.9323 68.1419 65.5525 68.5215 65.5525 68.99V81.7882C65.5525 82.7415 64.7774 83.5166 63.8241 83.5166C62.8714 83.5166 62.0957 82.741 62.0954 81.7882V68.99C62.0954 68.5246 61.713 68.137 61.2424 68.137C60.7741 68.137 60.3943 68.5166 60.3943 68.9851V77.482C60.3943 78.4353 59.6192 79.2104 58.6659 79.2104H58.1872C57.234 79.2104 56.4589 78.4353 56.4589 77.482V58.6159C56.4589 56.8648 57.0775 55.1604 58.201 53.8179C59.5798 52.1707 60.3392 50.0804 60.3392 47.9314V47.8278H74.0704V51.9955C74.0704 52.2538 74.1881 52.4977 74.3901 52.6588C77.7806 55.3601 79.5236 58.7352 84.914 68.5853ZM77.0996 44.1564C77.0996 45.2454 76.2134 46.1316 75.1243 46.1316H59.4445C58.3551 46.1316 57.469 45.2454 57.469 44.1564V36.9397C58.8612 37.1839 58.0671 37.031 77.0996 37.0786V44.1564ZM48.2611 17.7701H52.4292C52.6875 17.7701 52.9314 17.6524 53.0925 17.4505C55.7988 14.0535 59.1881 12.3067 69.0188 6.92742C69.9509 6.41063 71.114 6.63713 71.7853 7.46455C72.6501 8.53116 72.3323 10.1182 71.1286 10.7718L64.4702 14.3892C64.1295 14.5746 63.9576 14.9671 64.0532 15.3431C64.1488 15.7191 64.4871 15.9825 64.8751 15.9825L80.1186 15.9828C81.0719 15.9828 81.847 16.7584 81.847 17.7115C81.847 18.6643 81.0724 19.4392 80.1198 19.4397L69.4235 19.4394C68.9552 19.4394 68.5754 19.819 68.5754 20.2875C68.5754 20.7558 68.955 21.1356 69.4235 21.1356C71.083 21.1356 82.4573 21.136 84.3252 21.136C85.2785 21.136 86.0536 21.9111 86.0536 22.8643C86.0536 23.8176 85.2785 24.5927 84.3252 24.5927L69.4235 24.5924C68.9552 24.5924 68.5754 24.972 68.5754 25.4405C68.5754 25.9089 68.955 26.2886 69.4235 26.2886L82.2223 26.2889C83.1755 26.2889 83.9506 27.064 83.9506 28.0173C83.9506 28.9706 83.1755 29.7457 82.2223 29.7457H69.4235C68.9581 29.7457 68.5705 30.1281 68.5705 30.5986C68.5705 31.0669 68.9501 31.4467 69.4186 31.4467L77.9155 31.4471C78.8688 31.4471 79.6439 32.2222 79.6439 33.1755V33.6542C79.6439 34.6075 78.8688 35.3826 77.9155 35.3826L59.0494 35.382C57.2983 35.382 55.5944 34.763 54.2511 33.6392C52.6035 32.2608 50.5127 31.5013 48.3645 31.5013H48.2609V17.7701H48.2611ZM35.5762 30.3841V14.7408L44.5893 14.741C45.6787 14.741 46.5649 15.6272 46.5649 16.7165V32.3493V32.3965C46.5649 33.4859 45.6787 34.3721 44.5893 34.3721L34.658 34.3717C35.2546 33.1355 35.5762 31.773 35.5762 30.3841ZM44.5895 36.0681C46.3382 36.0681 47.8 34.8369 48.1671 33.1974H48.3645C50.1157 33.1974 51.8196 33.8164 53.1629 34.9402C53.946 35.5953 54.8311 36.1055 55.7728 36.4659V44.1562C55.7728 45.9049 57.004 47.3663 58.6435 47.7334V47.9312C58.6435 49.6827 58.0245 51.3867 56.9007 52.729C55.9495 53.8659 55.3017 55.2155 54.9864 56.6476L44.411 56.648C42.6067 56.648 41.1102 57.9592 40.8044 59.6769H36.9729C36.2406 58.8036 35.4213 58.0164 34.5668 57.2965V44.8442C34.5668 43.0955 33.3354 41.6339 31.696 41.2666C31.7137 41.1616 31.4917 38.5982 33.4388 36.2708C33.4936 36.2053 33.541 36.1349 33.5938 36.068L44.5895 36.0681ZM5.42552 20.4144C4.90925 19.4827 5.13488 18.3196 5.96265 17.6484C7.0237 16.788 8.6137 17.096 9.26991 18.3048L12.8876 24.9635C13.0731 25.3042 13.4656 25.4773 13.8416 25.3805C14.2176 25.2849 14.4809 24.9466 14.4809 24.5586V9.3146C14.4809 8.36133 15.256 7.58623 16.2093 7.58623C17.1626 7.58623 17.9377 8.36133 17.9377 9.3146V20.0097C17.9377 20.478 18.3173 20.8578 18.7858 20.8578C19.2541 20.8578 19.6339 20.4782 19.6339 20.0097C19.6339 16.5318 19.6339 8.55862 19.6339 5.10831C19.6339 4.15503 20.409 3.37993 21.3623 3.37993C22.3155 3.37993 23.0906 4.15503 23.0906 5.10831V20.0097C23.0906 20.478 23.4703 20.8578 23.9387 20.8578C24.4072 20.8578 24.7868 20.4782 24.7868 20.0097V7.21145C24.7868 6.25818 25.5619 5.48308 26.5152 5.48308C27.4685 5.48308 28.2439 6.25818 28.2439 7.21145V20.0097C28.2439 20.4784 28.6295 20.8632 29.0969 20.8632C29.5652 20.8632 29.945 20.4836 29.945 20.0151V11.5184C29.945 10.5651 30.7201 9.78967 31.6734 9.78967H32.1521C33.1054 9.78967 33.8805 10.5653 33.8805 11.5184V30.3841C33.8805 32.1353 33.2618 33.8397 32.138 35.1825C29.9028 37.854 30.0903 40.6563 30.0001 41.1726H16.2686V37.0046C16.2686 36.7462 16.1509 36.5024 15.9489 36.3412C12.4066 33.5186 10.7497 30.0714 5.42552 20.4144ZM13.24 44.8442C13.24 43.7548 14.1261 42.8686 15.2152 42.8686H30.895C31.9844 42.8686 32.8706 43.7548 32.8706 44.8442V55.9925C30.434 54.2582 20.7177 49.0001 20.8036 49.0475C19.1506 48.1308 17.0877 48.5316 15.8976 49.9994C14.3646 51.8898 14.9266 54.7062 17.0616 55.8656L20.7883 57.89H13.24V44.8442ZM19.5767 64.7388C20.045 64.7388 20.4248 64.3592 20.4248 63.8907C20.4248 63.4222 20.0452 63.0426 19.5767 63.0426H8.8814C7.92813 63.0426 7.15303 62.2675 7.15303 61.3142C7.15303 60.361 7.92813 59.5859 8.8814 59.5859L24.1249 59.5855C24.5129 59.5855 24.8512 59.3222 24.9468 58.9462C25.0424 58.5702 24.8706 58.1777 24.5298 57.9922L17.8709 54.3748C16.6677 53.7216 16.3498 52.1337 17.2151 51.0676C17.8855 50.2395 19.0495 50.0142 19.9786 50.5292C29.3417 55.6527 33.1099 57.5422 35.9073 61.0535C36.0685 61.2555 36.3123 61.3732 36.5707 61.3732H40.7387V75.1044H40.6351C38.4869 75.1044 36.3961 75.8638 34.7486 77.2423C33.4058 78.3661 31.7017 78.9851 29.9506 78.9851L11.0843 78.9854C10.131 78.9854 9.35595 78.2103 9.35595 77.2571V76.7783C9.35595 75.8251 10.131 75.05 11.0843 75.05L19.5816 75.0496C20.0499 75.0496 20.4297 74.67 20.4297 74.2015C20.4297 73.7346 20.0455 73.3485 19.5762 73.3485H6.77843C5.82515 73.3485 5.05005 72.5734 5.05005 71.6202C5.05005 70.6669 5.82515 69.8918 6.77843 69.8918L19.5767 69.8914C20.045 69.8914 20.4248 69.5118 20.4248 69.0433C20.4248 68.575 20.0452 68.1952 19.5767 68.1952L4.67493 68.1956C3.72166 68.1956 2.94656 67.4205 2.94656 66.4672C2.94656 65.5139 3.72166 64.7388 4.67493 64.7388H19.5767Z" fill="#1767A0"/>
</svg>
