<svg width="89" height="89" viewBox="0 0 89 89" fill="none" xmlns="http://www.w3.org/2000/svg">
<g clip-path="url(#clip0_115_11)">
<path d="M64.9168 33.2474V35.9214C64.9168 36.3358 65.2539 36.6728 65.6683 36.6728H72.9263C73.3407 36.6728 73.6777 36.3358 73.6777 35.9214L73.6706 33.2394L64.9168 33.2474Z" fill="#30C5EF"/>
<path d="M66.5379 39.8289C66.5379 40.2623 66.8905 40.6148 67.3238 40.6148H71.2754C71.7015 40.6148 72.0613 40.255 72.0613 39.8289V38.7571H66.5378V39.8289H66.5379Z" fill="#30C5EF"/>
<path d="M2.78194 76.8511L28.0105 85.7856V59.3486L2.78194 50.4143V76.8511Z" fill="#30C5EF"/>
<path d="M51.8302 69.6002C50.8901 68.7992 50.2921 67.6082 50.2921 66.2793V64.0915C50.2921 61.6855 52.2494 59.7282 54.6554 59.7282H62.0393V50.4143L36.8107 59.3487V85.7859L50.3599 80.9907C50.5398 79.9722 51.0737 79.0747 51.8302 78.4302C50.8901 77.6292 50.2921 76.4381 50.2921 75.1092V72.9214C50.2921 71.5925 50.8899 70.4012 51.8302 69.6004V69.6002Z" fill="#30C5EF"/>
<path d="M30.0947 59.6543H34.7265V86.218H30.0947V59.6543Z" fill="#30C5EF"/>
<path d="M54.1937 11.0635L56.4653 12.3741C56.6292 12.4687 56.8084 12.5137 56.985 12.5137C57.3454 12.5137 57.6958 12.3267 57.8888 11.9922C58.1763 11.4937 58.0054 10.8565 57.5069 10.5688L55.2353 9.2581C54.7367 8.97042 54.0993 9.14129 53.8118 9.64001C53.5243 10.1385 53.6952 10.7758 54.1937 11.0635Z" fill="#1767A0"/>
<path d="M78.3365 26.0221C79.6677 24.0451 81.0442 22.0011 81.0442 18.5819C81.0442 12.1059 75.7755 6.83752 69.2997 6.83752C62.8239 6.83752 57.5554 12.1061 57.5554 18.5819C57.5554 22.0009 58.9305 24.0451 60.2605 26.0219C61.4548 27.7974 62.5828 29.4759 62.8328 32.2508V35.9214C62.8328 37.0501 63.4972 38.0238 64.4539 38.48V39.8289C64.4539 41.4114 65.7415 42.699 67.3242 42.699H71.2758C72.8583 42.699 74.146 41.4114 74.146 39.8289V38.4775C75.1002 38.0202 75.7623 37.0473 75.7623 35.9186L75.7527 32.3171C75.7539 32.3066 75.7574 32.2971 75.7583 32.2865C76.0015 29.4898 77.1359 27.8052 78.3367 26.0219L78.3365 26.0221ZM72.0615 39.8289C72.0615 40.2549 71.7017 40.6148 71.2756 40.6148H67.324C66.8906 40.6148 66.5381 40.2622 66.5381 39.8289V38.7571H72.0617V39.8289H72.0615ZM72.9263 36.6729H65.6683C65.2539 36.6729 64.9168 36.3358 64.9168 35.9214V33.2474L73.6706 33.2394L73.6777 35.9214C73.6777 36.3358 73.3407 36.6729 72.9263 36.6729ZM68.5681 31.1597V22.4299C68.804 22.4447 69.0431 22.4537 69.2858 22.457H69.3136C69.5561 22.4537 69.7955 22.4447 70.0315 22.4299V31.1583L68.5681 31.1597ZM73.802 31.155L72.1157 31.1566V22.132C73.6784 21.7695 74.9569 21.1192 75.7413 20.2532C76.4378 19.4844 76.7604 18.5485 76.6747 17.5481C76.5407 15.9583 75.5775 14.6299 74.279 14.2424C73.5136 14.0138 72.7827 14.1207 72.1656 14.5518C71.0366 15.3403 70.3731 17.1879 70.0976 20.3353C69.8367 20.3563 69.5702 20.3688 69.2997 20.3728C69.0291 20.369 68.7622 20.3561 68.5011 20.3353C68.2223 17.185 67.5571 15.3372 66.4277 14.5499C65.8113 14.1206 65.0823 14.0142 64.3223 14.2421C63.0196 14.6287 62.054 15.9572 61.9198 17.5469C61.8341 18.5478 62.1568 19.4832 62.8529 20.2518C63.6385 21.1189 64.9187 21.7697 66.4839 22.1325V31.1618L64.7939 31.1634C64.3472 28.3705 63.1029 26.5133 61.9897 24.8586C60.7288 22.9841 59.6396 21.3652 59.6396 18.582C59.6396 13.2554 63.9731 8.9219 69.2997 8.9219C74.6263 8.9219 78.96 13.2554 78.96 18.582C78.96 21.3649 77.87 22.9837 76.6078 24.8581C75.4944 26.5114 74.2503 28.3665 73.802 31.155ZM72.2301 19.9447C72.5473 17.0591 73.1589 16.4005 73.3591 16.2607C73.3916 16.2381 73.4316 16.21 73.5123 16.21C73.5557 16.21 73.6108 16.2182 73.6828 16.2397C74.1521 16.3798 74.5372 17.0039 74.598 17.7247C74.6347 18.1522 74.5071 18.5111 74.1963 18.8541C73.788 19.3048 73.0954 19.6799 72.2299 19.9447H72.2301ZM66.3678 19.9447C65.5007 19.6796 64.8068 19.304 64.3978 18.8525C64.0875 18.5099 63.9597 18.1515 63.9964 17.7233C64.0581 16.992 64.4358 16.3823 64.9177 16.2392C64.9886 16.218 65.0428 16.21 65.0856 16.21C65.1645 16.21 65.2041 16.2375 65.2358 16.2597C65.436 16.3993 66.0476 17.0572 66.3678 19.9447Z" fill="#1767A0"/>
<path d="M52.4579 19.624H55.0792C55.6549 19.624 56.1213 19.1574 56.1213 18.5819C56.1213 18.0064 55.6547 17.5398 55.0792 17.5398H52.4579C51.8821 17.5398 51.4158 18.0064 51.4158 18.5819C51.4158 19.1574 51.8823 19.624 52.4579 19.624Z" fill="#1767A0"/>
<path d="M87.2602 61.8125C87.8359 61.8125 88.3023 61.3459 88.3023 60.7704C88.3023 60.1948 87.8357 59.7283 87.2602 59.7283H64.1235V48.9398C64.1235 48.6014 63.9592 48.2841 63.6828 48.0887C63.4062 47.8932 63.0516 47.8449 62.7335 47.9575L59.1664 49.2207C56.5371 43.5882 50.4173 39.453 42.02 37.6015C46.0386 34.6419 48.6514 29.878 48.6514 24.5147C48.6514 15.5608 41.3669 8.27637 32.413 8.27637C23.4591 8.27637 16.1698 15.5608 16.1698 24.5147C16.1698 29.878 18.7832 34.6416 22.8028 37.6012C14.4046 39.4524 8.2843 43.5878 5.6548 49.2207L2.08768 47.9575C1.76888 47.8449 1.41496 47.8935 1.1384 48.0887C0.862014 48.2841 0.697746 48.6014 0.697746 48.9398V77.5877C0.697746 78.0292 0.975871 78.4228 1.39202 78.57L28.7048 88.2425L28.7051 88.2416C28.8139 88.2802 28.9306 88.3023 29.0526 88.3023H35.7686C35.8906 88.3023 36.0073 88.2802 36.1159 88.2418L36.1163 88.2427L50.2923 83.2257V83.9441C50.2923 86.3473 52.2496 88.3023 54.6556 88.3023H87.2602C87.8359 88.3023 88.3023 87.8358 88.3023 87.2602C88.3023 86.6847 87.8357 86.2181 87.2602 86.2181C86.0063 86.2181 84.9861 85.1979 84.9861 83.9441V81.7514C84.9861 80.4948 86.0063 79.4725 87.2602 79.4725C87.8359 79.4725 88.3023 79.006 88.3023 78.4304C88.3023 77.8549 87.8357 77.3883 87.2602 77.3883C86.0063 77.3883 84.9861 76.3661 84.9861 75.1095V72.9217C84.9861 71.6651 86.0063 70.6428 87.2602 70.6428C87.8359 70.6428 88.3023 70.1762 88.3023 69.6007C88.3023 69.0251 87.8357 68.5586 87.2602 68.5586C86.0063 68.5586 84.9861 67.5363 84.9861 66.2797V64.0919C84.9861 62.8353 86.0063 61.813 87.2602 61.813V61.8125ZM18.254 24.5145C18.254 16.71 24.6057 10.3606 32.413 10.3606C40.2204 10.3606 46.5672 16.71 46.5672 24.5145C46.5672 32.3191 40.2177 38.6735 32.413 38.6735C24.6083 38.6735 18.254 32.3218 18.254 24.5145ZM28.0105 85.7856L2.78195 76.8512V50.4144L28.0105 59.3488V85.7856ZM34.7265 86.2181H30.0947V59.6544H34.7265V86.2181ZM35.5896 57.5702H29.2318L7.6288 49.9197C10.2571 44.5046 16.6842 40.6374 25.4968 39.2093C27.5964 40.2015 29.9409 40.7575 32.4132 40.7575C34.8856 40.7575 37.2279 40.2016 39.3267 39.2096C48.1382 40.6379 54.5645 44.5048 57.1926 49.9195L35.5896 57.57V57.5702ZM51.8303 78.4303C51.0738 79.0748 50.54 79.9721 50.3601 80.9908L36.8109 85.786V59.3488L62.0394 50.4144V59.7283H54.6556C52.2496 59.7283 50.2923 61.6856 50.2923 64.0915V66.2793C50.2923 67.6083 50.8901 68.7995 51.8303 69.6003C50.8903 70.4013 50.2923 71.5924 50.2923 72.9213V75.1091C50.2923 76.438 50.8901 77.6293 51.8303 78.4301V78.4303ZM55.7543 75.0575H82.9019V75.1093C82.9019 75.944 83.1373 76.7245 83.5448 77.3882H54.6556C53.399 77.3882 52.3767 76.3659 52.3767 75.1093V72.9215C52.3767 71.6649 53.3991 70.6426 54.6556 70.6426H83.5448C83.1371 71.3063 82.9019 72.0869 82.9019 72.9215V72.9733H55.7543C55.1786 72.9733 54.7122 73.4398 54.7122 74.0154C54.7122 74.5909 55.1788 75.0575 55.7543 75.0575ZM55.7543 83.8874H82.9019V83.9441C82.9019 84.7769 83.1368 85.5557 83.5434 86.2181H54.6554C53.3988 86.2181 52.3765 85.1979 52.3765 83.9441V81.7514C52.3765 80.4948 53.399 79.4725 54.6554 79.4725H83.5453C83.1375 80.1362 82.9018 80.9167 82.9018 81.7514V81.8032H55.7542C55.1784 81.8032 54.7121 82.2698 54.7121 82.8453C54.7121 83.4209 55.1788 83.8874 55.7543 83.8874ZM54.6556 68.5582C53.399 68.5582 52.3767 67.5359 52.3767 66.2793V64.0915C52.3767 62.8349 53.3991 61.8126 54.6556 61.8126H83.5448C83.1371 62.4763 82.9019 63.257 82.9019 64.0915V64.1433H55.7543C55.1786 64.1433 54.7122 64.6099 54.7122 65.1854C54.7122 65.761 55.1788 66.2275 55.7543 66.2275H82.9019V66.2793C82.9019 67.1141 83.1376 67.8945 83.5454 68.5582H54.6556Z" fill="#1767A0"/>
<path d="M69.2995 5.40832C69.8753 5.40832 70.3416 4.94177 70.3416 4.36622V1.73985C70.3416 1.16431 69.8751 0.697754 69.2995 0.697754C68.724 0.697754 68.2574 1.16431 68.2574 1.73985V4.36622C68.2574 4.94177 68.724 5.40832 69.2995 5.40832Z" fill="#1767A0"/>
<path d="M75.8828 7.17008C76.0472 7.26533 76.2268 7.31053 76.4041 7.31053C76.7637 7.31053 77.1136 7.12419 77.3069 6.79061L78.6225 4.51902C78.9108 4.02101 78.741 3.38323 78.2428 3.09485C77.7443 2.80612 77.1072 2.9763 76.8186 3.47432L75.5031 5.7459C75.2147 6.24392 75.3846 6.88152 75.8828 7.17008Z" fill="#1767A0"/>
<path d="M61.2868 6.78898C61.4797 7.12343 61.8301 7.31047 62.1905 7.31047C62.3673 7.31047 62.5463 7.26545 62.7102 7.17088C63.2088 6.8832 63.3798 6.24595 63.0921 5.74741L61.7813 3.47582C61.4938 2.97711 60.8564 2.80623 60.358 3.09392C59.8594 3.38161 59.6884 4.01886 59.9763 4.5174L61.2868 6.78898Z" fill="#1767A0"/>
<path d="M81.6094 12.514C81.7858 12.514 81.9645 12.4691 82.1282 12.3749L84.4049 11.0642C84.9036 10.7771 85.0751 10.14 84.788 9.64109C84.501 9.14221 83.8637 8.97064 83.3648 9.2578L81.0882 10.5685C80.5895 10.8556 80.4179 11.4927 80.7051 11.9916C80.8979 12.3266 81.2485 12.514 81.6092 12.514H81.6094Z" fill="#1767A0"/>
<path d="M82.4733 18.5818C82.4733 19.1573 82.9398 19.6239 83.5154 19.6239H86.1416C86.7173 19.6239 87.1837 19.1573 87.1837 18.5818C87.1837 18.0062 86.7171 17.5397 86.1416 17.5397H83.5154C82.9397 17.5397 82.4733 18.0062 82.4733 18.5818Z" fill="#1767A0"/>
</g>
<defs>
<clipPath id="clip0_115_11">
<rect width="89" height="89" fill="white"/>
</clipPath>
</defs>
</svg>
